<?xml version="1.0" encoding="utf-8"?>
<!-- Generator: Adobe Illustrator 21.0.2, SVG Export Plug-In . SVG Version: 6.00 Build 0)  -->
<svg version="1.1" id="Layer_4" xmlns="http://www.w3.org/2000/svg" xmlns:xlink="http://www.w3.org/1999/xlink" x="0px" y="0px"
	 viewBox="0 0 134.1 32" style="enable-background:new 0 0 134.1 32;" xml:space="preserve">
<style type="text/css">
	.st0{fill:#673AB7;}
</style>
<g id="XMLID_261_">
	<path id="XMLID_259_" class="st0" d="M5.2,0H0l14.8,25.6l2.6-4.5L5.2,0z"/>
	<path id="XMLID_258_" class="st0" d="M19.3,14.6L10.9,0H5.8l11.9,20.6l1.7-2.9c0.3-0.5,0.4-1,0.4-1.6C19.8,15.6,19.6,15,19.3,14.6z
		"/>
	<path id="XMLID_257_" class="st0" d="M9,16.7L0.2,32h5.1l6.3-10.9L9,16.7z"/>
	<path id="XMLID_256_" class="st0" d="M11.9,21.6L5.9,32h5.2l3.4-5.9L11.9,21.6z"/>
</g>
<g id="XMLID_1_">
	<path class="st0" d="M44,8.4c0,1.8-0.5,3.1-1.6,4.2c-1.2,1.2-2.7,1.9-4.6,1.9c-1.8,0-3.3-0.6-4.6-1.9s-1.9-2.8-1.9-4.7
		s0.6-3.4,1.9-4.7C34.5,2,36,1.4,37.8,1.4c0.9,0,1.8,0.2,2.6,0.5s1.5,0.8,2,1.4l-1.1,1.1c-0.8-1-2-1.5-3.4-1.5
		c-1.3,0-2.5,0.5-3.4,1.4c-1,0.9-1.4,2.1-1.4,3.6s0.5,2.7,1.4,3.6c1,0.9,2.1,1.4,3.4,1.4c1.4,0,2.6-0.5,3.5-1.4
		c0.6-0.6,1-1.5,1.1-2.5h-4.6V7.5H44C43.9,7.8,44,8.1,44,8.4z M45.6,14.2V1.6h3.8c1.9,0,3.5,0.6,4.6,1.7c1.2,1.2,1.7,2.7,1.7,4.5
		s-0.6,3.4-1.7,4.5c-1.2,1.2-2.7,1.7-4.6,1.7h-3.8V14.2z M47.2,12.6h2.2c1.4,0,2.6-0.4,3.4-1.2c0.8-0.8,1.3-2,1.3-3.5
		s-0.4-2.6-1.3-3.5c-0.8-0.8-2-1.3-3.4-1.3h-2.2V12.6z M69.4,8.4c0,1.8-0.5,3.1-1.6,4.2c-1.2,1.2-2.7,1.9-4.6,1.9
		c-1.8,0-3.3-0.6-4.6-1.9s-1.9-2.8-1.9-4.7s0.6-3.4,1.9-4.7c1.3-1.3,2.8-1.9,4.6-1.9c0.9,0,1.8,0.2,2.6,0.5s1.5,0.8,2,1.4l-1.1,1.1
		c-0.8-1-2-1.5-3.4-1.5c-1.3,0-2.5,0.5-3.4,1.4c-1,0.9-1.4,2.1-1.4,3.6s0.5,2.7,1.4,3.6c1,0.9,2.1,1.4,3.4,1.4
		c1.4,0,2.6-0.5,3.5-1.4c0.6-0.6,1-1.5,1.1-2.5h-4.6V7.5h6.1V8.4z M75.2,14.2V1.6H79c1.9,0,3.5,0.6,4.6,1.7c1.2,1.2,1.7,2.7,1.7,4.5
		s-0.6,3.4-1.7,4.5C82.4,13.5,80.9,14,79,14h-3.8V14.2z M76.8,12.6H79c1.4,0,2.6-0.4,3.4-1.2s1.3-2,1.3-3.5s-0.4-2.6-1.3-3.5
		c-0.8-0.8-2-1.3-3.4-1.3h-2.2C76.8,3.1,76.8,12.6,76.8,12.6z M90.7,14.5c-1.3,0-2.3-0.4-3.2-1.3c-0.8-0.9-1.2-2-1.2-3.3
		c0-1.2,0.4-2.3,1.2-3.2c0.8-0.9,1.8-1.3,3-1.3c1.3,0,2.3,0.4,3.1,1.2c0.8,0.8,1.1,1.9,1.1,3.3v0.3h-6.8c0,0.9,0.3,1.5,0.9,2
		c0.5,0.5,1.2,0.8,1.9,0.8c1.2,0,1.9-0.5,2.3-1.5l1.4,0.6c-0.3,0.7-0.7,1.2-1.4,1.7C92.4,14.2,91.6,14.5,90.7,14.5z M93,8.9
		c0-0.5-0.3-1-0.7-1.4c-0.4-0.4-1-0.7-1.8-0.7c-0.6,0-1.1,0.2-1.5,0.6s-0.7,0.9-0.9,1.5H93z M98.1,14.2l-3.5-8.6h1.8l2.5,6.6
		l2.6-6.6h1.7l-3.5,8.6C99.7,14.2,98.1,14.2,98.1,14.2z M105.8,14.2h-1.6V1.6h7.3v1.5h-5.7v4.1h5.1v1.5h-5.1
		C105.8,8.7,105.8,14.2,105.8,14.2z M116.3,14.5c-1.3,0-2.3-0.4-3.2-1.3c-0.8-0.9-1.2-2-1.2-3.3c0-1.2,0.4-2.3,1.2-3.2
		c0.8-0.9,1.8-1.3,3-1.3c1.3,0,2.3,0.4,3.1,1.2c0.8,0.8,1.1,1.9,1.1,3.3v0.3h-6.8c0,0.9,0.3,1.5,0.9,2c0.5,0.5,1.2,0.8,1.9,0.8
		c1.2,0,1.9-0.5,2.3-1.5l1.4,0.6c-0.3,0.7-0.7,1.2-1.4,1.7C118,14.2,117.3,14.5,116.3,14.5z M118.6,8.9c0-0.5-0.3-1-0.7-1.4
		c-0.4-0.4-1-0.7-1.8-0.7c-0.6,0-1.1,0.2-1.5,0.6s-0.7,0.9-0.9,1.5H118.6z M124.6,14.5c-1,0-1.7-0.2-2.4-0.7c-0.6-0.5-1.1-1-1.4-1.8
		l1.4-0.6c0.5,1.1,1.2,1.6,2.3,1.6c0.5,0,0.9-0.1,1.2-0.3c0.3-0.2,0.5-0.5,0.5-0.9c0-0.6-0.4-0.9-1.2-1.1l-1.7-0.4
		c-0.5-0.1-1.1-0.4-1.6-0.8S121,8.6,121,7.9c0-0.8,0.3-1.4,1-1.8c0.7-0.5,1.5-0.7,2.4-0.7c0.8,0,1.4,0.2,2,0.5s1,0.8,1.3,1.5
		L126.3,8c-0.3-0.8-1-1.1-2-1.1c-0.5,0-0.9,0.1-1.2,0.3c-0.3,0.2-0.5,0.5-0.5,0.8c0,0.5,0.4,0.8,1.1,1l1.7,0.4
		c0.8,0.2,1.4,0.5,1.8,1s0.6,1,0.6,1.5c0,0.8-0.3,1.4-0.9,1.9C126.4,14.2,125.6,14.5,124.6,14.5z M132.8,14.3
		c-0.9,0-1.6-0.2-2.1-0.7s-0.7-1.2-0.7-2V7.1h-1.5V5.6h1.5V3h1.6v2.6h2.1v1.5h-2.1v4.4c0,0.9,0.4,1.4,1.2,1.4c0.3,0,0.5,0,0.7-0.1
		l0.6,1.4C133.8,14.2,133.3,14.3,132.8,14.3z M35.4,31c-0.9,0-1.8-0.3-2.7-0.9c-0.9-0.6-1.4-1.4-1.7-2.5l1.5-0.6
		c0.2,0.7,0.5,1.3,1.1,1.7c0.5,0.5,1.2,0.7,1.8,0.7c0.7,0,1.3-0.2,1.8-0.6s0.7-0.9,0.7-1.5c0-0.7-0.2-1.2-0.7-1.6s-1.3-0.7-2.4-1.1
		c-1.1-0.3-1.9-0.8-2.5-1.4c-0.6-0.6-0.9-1.3-0.9-2.1c0-0.9,0.4-1.7,1.1-2.3c0.7-0.7,1.6-1,2.8-1c1.1,0,1.9,0.3,2.6,0.8
		c0.7,0.5,1.1,1.1,1.3,1.7L37.8,21c-0.1-0.4-0.4-0.8-0.8-1.1c-0.4-0.3-0.9-0.5-1.6-0.5c-0.6,0-1.1,0.2-1.6,0.5
		c-0.4,0.3-0.7,0.8-0.7,1.3s0.2,0.9,0.6,1.2c0.4,0.3,1,0.6,1.8,0.9c0.6,0.2,1.1,0.4,1.5,0.6s0.8,0.4,1.3,0.7c0.4,0.3,0.7,0.7,1,1.2
		c0.2,0.5,0.3,1,0.3,1.6s-0.1,1.1-0.4,1.6c-0.3,0.5-0.6,0.9-1,1.1c-0.4,0.3-0.9,0.5-1.3,0.6C36.4,30.9,35.9,31,35.4,31L35.4,31z
		 M44.9,31c-1.3,0-2.3-0.4-3.2-1.3c-0.8-0.9-1.2-2-1.2-3.3c0-1.2,0.4-2.3,1.2-3.2c0.8-0.9,1.8-1.3,3-1.3c1.3,0,2.3,0.4,3.1,1.2
		c0.8,0.8,1.1,1.9,1.1,3.3v0.3h-6.8c0,0.9,0.3,1.5,0.9,2c0.5,0.5,1.2,0.8,1.9,0.8c1.2,0,1.9-0.5,2.3-1.5l1.4,0.6
		c-0.3,0.7-0.7,1.2-1.4,1.7C46.6,30.7,45.8,31,44.9,31z M47.2,25.4c0-0.5-0.3-1-0.7-1.4s-1-0.7-1.8-0.7c-0.6,0-1.1,0.2-1.5,0.6
		s-0.7,0.9-0.9,1.5H47.2z M52.7,31c-0.9,0-1.7-0.3-2.3-0.8s-0.9-1.2-0.9-2.1s0.4-1.7,1.1-2.2c0.7-0.5,1.6-0.8,2.7-0.8
		c0.9,0,1.7,0.2,2.3,0.5v-0.2c0-0.6-0.2-1.1-0.6-1.5c-0.4-0.4-1-0.6-1.6-0.6c-0.5,0-0.9,0.1-1.3,0.3c-0.4,0.2-0.6,0.5-0.8,0.9
		l-1.5-0.6c0.2-0.5,0.6-1,1.2-1.4c0.6-0.4,1.4-0.7,2.3-0.7c1.1,0,2,0.3,2.7,1c0.7,0.6,1.1,1.5,1.1,2.7v5.2h-1.5v-1.2h-0.1
		C54.9,30.5,54,31,52.7,31z M53,29.5c0.7,0,1.3-0.2,1.8-0.7s0.8-1.1,0.8-1.8c-0.5-0.4-1.1-0.6-2-0.6c-0.8,0-1.4,0.2-1.8,0.5
		c-0.4,0.3-0.6,0.7-0.6,1.2c0,0.4,0.2,0.8,0.5,1C52.1,29.4,52.5,29.5,53,29.5z M61.8,31c-1,0-1.7-0.2-2.4-0.7
		c-0.6-0.5-1.1-1-1.4-1.8l1.4-0.6c0.5,1.1,1.2,1.6,2.3,1.6c0.5,0,0.9-0.1,1.2-0.3c0.3-0.2,0.5-0.5,0.5-0.9c0-0.6-0.4-0.9-1.2-1.1
		l-1.7-0.4c-0.5-0.1-1.1-0.4-1.6-0.8s-0.7-0.9-0.7-1.6c0-0.8,0.3-1.4,1-1.8c0.7-0.5,1.5-0.7,2.4-0.7c0.8,0,1.4,0.2,2,0.5
		s1,0.8,1.3,1.5l-1.4,0.6c-0.3-0.8-1-1.1-2-1.1c-0.5,0-0.9,0.1-1.2,0.3C60.2,23.8,60,24,60,24.4c0,0.5,0.4,0.8,1.1,1l1.7,0.4
		c0.8,0.2,1.4,0.5,1.8,1s0.6,1,0.6,1.5c0,0.8-0.3,1.4-0.9,1.9C63.6,30.7,62.8,31,61.8,31z M67,23.1c0.8-0.9,1.9-1.3,3.2-1.3
		c1.3,0,2.3,0.4,3.2,1.3c0.8,0.9,1.2,2,1.2,3.3s-0.4,2.4-1.2,3.3c-0.8,0.9-1.9,1.3-3.2,1.3c-1.3,0-2.3-0.4-3.2-1.3
		c-0.8-0.9-1.2-2-1.2-3.3S66.2,24,67,23.1z M68.2,28.6c0.6,0.6,1.2,0.8,2,0.8s1.4-0.3,2-0.8c0.6-0.6,0.8-1.3,0.8-2.2
		c0-0.9-0.3-1.7-0.8-2.2c-0.6-0.6-1.2-0.8-2-0.8s-1.4,0.3-2,0.8c-0.6,0.6-0.8,1.3-0.8,2.2C67.4,27.3,67.7,28.1,68.2,28.6z
		 M77.3,22.1v1.2h0.1c0.2-0.4,0.6-0.8,1.1-1c0.5-0.3,1-0.4,1.6-0.4c1.1,0,1.9,0.3,2.4,1c0.6,0.7,0.8,1.5,0.8,2.6v5.2h-1.6v-5
		c0-1.6-0.7-2.4-2.1-2.4c-0.7,0-1.2,0.3-1.6,0.8s-0.6,1.1-0.6,1.8v4.7h-1.6V22h1.5L77.3,22.1z M96.5,30.7h-7.6v-1.6
		c2.3-2.3,3.8-3.8,4.4-4.5c0.6-0.6,1-1.1,1.2-1.5c0.2-0.3,0.3-0.7,0.3-1.2s-0.2-0.9-0.6-1.3S93.3,20,92.6,20c-0.6,0-1.1,0.2-1.5,0.5
		c-0.4,0.4-0.6,0.7-0.7,1.1L88.8,21c0.2-0.6,0.6-1.2,1.2-1.8c0.6-0.6,1.4-0.8,2.4-0.8c1.1,0,2,0.3,2.7,1s1.1,1.5,1.1,2.4
		c0,1.2-0.6,2.4-1.9,3.7L90.8,29h5.5v1.7H96.5z M105.7,29.2c-0.9,1.2-2,1.8-3.5,1.8c-1.4,0-2.6-0.6-3.5-1.8
		c-0.9-1.2-1.3-2.7-1.3-4.5s0.4-3.3,1.3-4.5s2-1.8,3.5-1.8c1.4,0,2.6,0.6,3.5,1.8c0.9,1.2,1.3,2.7,1.3,4.5S106.6,28,105.7,29.2z
		 M102.2,29.4c1,0,1.7-0.4,2.3-1.3c0.6-0.9,0.9-2,0.9-3.4s-0.3-2.5-0.9-3.4s-1.3-1.3-2.3-1.3s-1.7,0.4-2.3,1.3
		c-0.6,0.9-0.9,2-0.9,3.4s0.3,2.5,0.9,3.4C100.4,29,101.2,29.4,102.2,29.4z M112.1,30.7h-1.6v-10l-2.3,1l-0.6-1.4l3.5-1.6h1V30.7z"
		/>
</g>
<g>
	<path class="st0" d="M120.7,25.6c-0.3,0.4-0.7,0.7-1.1,0.9c-0.4,0.2-0.9,0.4-1.4,0.4c-0.7,0-1.2-0.2-1.7-0.5
		c-0.5-0.4-0.9-0.8-1.1-1.5c-0.3-0.6-0.4-1.3-0.4-2.1c0-0.8,0.1-1.6,0.4-2.2c0.3-0.7,0.7-1.2,1.2-1.5c0.5-0.4,1.2-0.5,1.9-0.5
		c1.1,0,2,0.5,2.7,1.4c0.7,0.9,1,2.2,1,3.7V24c0,2.4-0.4,4.2-1.3,5.3c-0.9,1.1-2.2,1.7-4,1.7h-0.3v-1.3h0.3c1.2,0,2.1-0.4,2.8-1
		C120.3,28,120.7,27,120.7,25.6z M118.5,25.6c0.5,0,0.9-0.2,1.4-0.5c0.4-0.3,0.7-0.7,0.9-1.2v-0.6c0-1-0.2-1.9-0.6-2.5
		c-0.4-0.6-0.9-1-1.6-1c-0.6,0-1.2,0.3-1.6,0.8c-0.4,0.5-0.6,1.2-0.6,2.1c0,0.8,0.2,1.5,0.6,2.1C117.3,25.3,117.8,25.6,118.5,25.6z"
		/>
</g>
</svg>
